<svg xmlns="http://www.w3.org/2000/svg" viewBox="0 0 32 32"><defs><style>.a{fill:#a7a9ac;}</style></defs><title>Artboard 1</title><path class="a" d="M26.13,2V30a2,2,0,0,1-2,2h-16a2,2,0,0,1-2-2V25.39H8v3.05a1.12,1.12,0,0,0,1.19,1H23.11a1.11,1.11,0,0,0,1.18-1V3.56a1.11,1.11,0,0,0-1.18-1H9.22A1.12,1.12,0,0,0,8,3.56v4.6H6.19V2a2,2,0,0,1,2-2h16A2,2,0,0,1,26.13,2Z"/><polygon class="a" points="16.69 9.04 16.69 22 13.5 22 13.5 14.36 6.19 21.54 2.79 24.88 0.53 22.66 6.19 17.1 11.23 12.16 3.5 12.16 3.5 9.04 16.69 9.04"/></svg>